<mxfile host="drawio-plugin" agent="5.0 (Windows NT 10.0; Win64; x64) AppleWebKit/537.36 (KHTML, like Gecko) Chrome/111.0.0.0 Safari/537.36" modified="2024-11-19T15:06:24.615Z" etag="WMhLRfJ1cmTnU9qlb0CJ" version="20.5.3" type="embed"><diagram name="Página-1" id="j5AMA3MKKG-HFkNEsVsC"><mxGraphModel dx="1824" dy="797" grid="1" gridSize="10" guides="1" tooltips="1" connect="1" arrows="1" fold="1" page="1" pageScale="1" pageWidth="827" pageHeight="1169" math="0" shadow="0"><root><mxCell id="0"/><mxCell id="1" parent="0"/><mxCell id="EYEAUQKpjQsUeQY74ElF-3" style="edgeStyle=orthogonalEdgeStyle;rounded=0;orthogonalLoop=1;jettySize=auto;html=1;exitX=0.5;exitY=1;exitDx=0;exitDy=0;entryX=0.5;entryY=0;entryDx=0;entryDy=0;" parent="1" source="EYEAUQKpjQsUeQY74ElF-1" target="EYEAUQKpjQsUeQY74ElF-2" edge="1"><mxGeometry relative="1" as="geometry"/></mxCell><mxCell id="EYEAUQKpjQsUeQY74ElF-1" value="Muerte" style="rounded=1;whiteSpace=wrap;html=1;" parent="1" vertex="1"><mxGeometry x="280" y="160" width="120" height="60" as="geometry"/></mxCell><mxCell id="EYEAUQKpjQsUeQY74ElF-5" style="edgeStyle=orthogonalEdgeStyle;rounded=0;orthogonalLoop=1;jettySize=auto;html=1;exitX=0.5;exitY=1;exitDx=0;exitDy=0;" parent="1" source="EYEAUQKpjQsUeQY74ElF-2" target="EYEAUQKpjQsUeQY74ElF-4" edge="1"><mxGeometry relative="1" as="geometry"/></mxCell><mxCell id="EYEAUQKpjQsUeQY74ElF-13" style="edgeStyle=orthogonalEdgeStyle;rounded=0;orthogonalLoop=1;jettySize=auto;html=1;exitX=1;exitY=0.25;exitDx=0;exitDy=0;" parent="1" source="EYEAUQKpjQsUeQY74ElF-2" edge="1"><mxGeometry relative="1" as="geometry"><mxPoint x="460" y="295" as="targetPoint"/><mxPoint x="450" y="270" as="sourcePoint"/></mxGeometry></mxCell><mxCell id="EYEAUQKpjQsUeQY74ElF-14" value="Se guarda la posicion de la cabeza" style="edgeLabel;html=1;align=center;verticalAlign=middle;resizable=0;points=[];" parent="EYEAUQKpjQsUeQY74ElF-13" vertex="1" connectable="0"><mxGeometry x="0.8678" relative="1" as="geometry"><mxPoint x="94" as="offset"/></mxGeometry></mxCell><mxCell id="EYEAUQKpjQsUeQY74ElF-15" style="edgeStyle=orthogonalEdgeStyle;rounded=0;orthogonalLoop=1;jettySize=auto;html=1;exitX=1;exitY=0.75;exitDx=0;exitDy=0;" parent="1" source="EYEAUQKpjQsUeQY74ElF-2" edge="1"><mxGeometry relative="1" as="geometry"><mxPoint x="460" y="325" as="targetPoint"/></mxGeometry></mxCell><mxCell id="EYEAUQKpjQsUeQY74ElF-16" value="Se comprueba si es actualizada" style="edgeLabel;html=1;align=center;verticalAlign=middle;resizable=0;points=[];" parent="EYEAUQKpjQsUeQY74ElF-15" vertex="1" connectable="0"><mxGeometry x="0.9003" y="-1" relative="1" as="geometry"><mxPoint x="83" as="offset"/></mxGeometry></mxCell><mxCell id="EYEAUQKpjQsUeQY74ElF-2" value="Se coloca cabeza en el suelo" style="rounded=1;whiteSpace=wrap;html=1;" parent="1" vertex="1"><mxGeometry x="280" y="280" width="120" height="60" as="geometry"/></mxCell><mxCell id="EYEAUQKpjQsUeQY74ElF-8" style="edgeStyle=orthogonalEdgeStyle;rounded=0;orthogonalLoop=1;jettySize=auto;html=1;exitX=0.25;exitY=1;exitDx=0;exitDy=0;entryX=0.5;entryY=0;entryDx=0;entryDy=0;" parent="1" source="EYEAUQKpjQsUeQY74ElF-4" target="EYEAUQKpjQsUeQY74ElF-6" edge="1"><mxGeometry relative="1" as="geometry"/></mxCell><mxCell id="EYEAUQKpjQsUeQY74ElF-9" style="edgeStyle=orthogonalEdgeStyle;rounded=0;orthogonalLoop=1;jettySize=auto;html=1;exitX=0.75;exitY=1;exitDx=0;exitDy=0;entryX=0.5;entryY=0;entryDx=0;entryDy=0;" parent="1" source="EYEAUQKpjQsUeQY74ElF-4" target="EYEAUQKpjQsUeQY74ElF-7" edge="1"><mxGeometry relative="1" as="geometry"/></mxCell><mxCell id="EYEAUQKpjQsUeQY74ElF-4" value="El fantasma activa un totem" style="rounded=1;whiteSpace=wrap;html=1;" parent="1" vertex="1"><mxGeometry x="280" y="400" width="120" height="60" as="geometry"/></mxCell><mxCell id="EYEAUQKpjQsUeQY74ElF-58" style="edgeStyle=orthogonalEdgeStyle;rounded=0;orthogonalLoop=1;jettySize=auto;html=1;exitX=0.5;exitY=1;exitDx=0;exitDy=0;" parent="1" source="EYEAUQKpjQsUeQY74ElF-6" target="EYEAUQKpjQsUeQY74ElF-27" edge="1"><mxGeometry relative="1" as="geometry"/></mxCell><mxCell id="EYEAUQKpjQsUeQY74ElF-6" value="Si" style="rounded=1;whiteSpace=wrap;html=1;fillColor=#647687;fontColor=#ffffff;strokeColor=#314354;" parent="1" vertex="1"><mxGeometry x="20" y="520" width="120" height="60" as="geometry"/></mxCell><mxCell id="EYEAUQKpjQsUeQY74ElF-32" style="edgeStyle=orthogonalEdgeStyle;rounded=0;orthogonalLoop=1;jettySize=auto;html=1;exitX=0.25;exitY=1;exitDx=0;exitDy=0;" parent="1" source="EYEAUQKpjQsUeQY74ElF-7" target="EYEAUQKpjQsUeQY74ElF-31" edge="1"><mxGeometry relative="1" as="geometry"/></mxCell><mxCell id="EYEAUQKpjQsUeQY74ElF-33" style="edgeStyle=orthogonalEdgeStyle;rounded=0;orthogonalLoop=1;jettySize=auto;html=1;exitX=0.75;exitY=1;exitDx=0;exitDy=0;" parent="1" source="EYEAUQKpjQsUeQY74ElF-7" target="EYEAUQKpjQsUeQY74ElF-30" edge="1"><mxGeometry relative="1" as="geometry"/></mxCell><mxCell id="EYEAUQKpjQsUeQY74ElF-7" value="No" style="rounded=1;whiteSpace=wrap;html=1;" parent="1" vertex="1"><mxGeometry x="540" y="520" width="120" height="60" as="geometry"/></mxCell><mxCell id="EYEAUQKpjQsUeQY74ElF-11" value="¿Esta colocada la cabeza?" style="text;html=1;align=center;verticalAlign=middle;resizable=0;points=[];autosize=1;strokeColor=none;fillColor=none;" parent="1" vertex="1"><mxGeometry x="255" y="490" width="170" height="30" as="geometry"/></mxCell><mxCell id="EYEAUQKpjQsUeQY74ElF-80" style="edgeStyle=orthogonalEdgeStyle;rounded=0;orthogonalLoop=1;jettySize=auto;html=1;exitX=0.25;exitY=1;exitDx=0;exitDy=0;" parent="1" source="EYEAUQKpjQsUeQY74ElF-27" target="EYEAUQKpjQsUeQY74ElF-79" edge="1"><mxGeometry relative="1" as="geometry"/></mxCell><mxCell id="EYEAUQKpjQsUeQY74ElF-81" style="edgeStyle=orthogonalEdgeStyle;rounded=0;orthogonalLoop=1;jettySize=auto;html=1;exitX=0.75;exitY=1;exitDx=0;exitDy=0;" parent="1" source="EYEAUQKpjQsUeQY74ElF-27" target="EYEAUQKpjQsUeQY74ElF-78" edge="1"><mxGeometry relative="1" as="geometry"/></mxCell><mxCell id="EYEAUQKpjQsUeQY74ElF-27" value="La cabeza se mueve hacia el totem" style="rounded=1;whiteSpace=wrap;html=1;" parent="1" vertex="1"><mxGeometry x="20" y="1030" width="120" height="60" as="geometry"/></mxCell><mxCell id="EYEAUQKpjQsUeQY74ElF-41" style="edgeStyle=orthogonalEdgeStyle;rounded=0;orthogonalLoop=1;jettySize=auto;html=1;exitX=0.25;exitY=1;exitDx=0;exitDy=0;entryX=0.5;entryY=0;entryDx=0;entryDy=0;" parent="1" source="EYEAUQKpjQsUeQY74ElF-30" target="EYEAUQKpjQsUeQY74ElF-37" edge="1"><mxGeometry relative="1" as="geometry"/></mxCell><mxCell id="EYEAUQKpjQsUeQY74ElF-42" style="edgeStyle=orthogonalEdgeStyle;rounded=0;orthogonalLoop=1;jettySize=auto;html=1;exitX=0.75;exitY=1;exitDx=0;exitDy=0;" parent="1" source="EYEAUQKpjQsUeQY74ElF-30" target="EYEAUQKpjQsUeQY74ElF-38" edge="1"><mxGeometry relative="1" as="geometry"/></mxCell><mxCell id="EYEAUQKpjQsUeQY74ElF-30" value="Si" style="rounded=1;whiteSpace=wrap;html=1;" parent="1" vertex="1"><mxGeometry x="900" y="620" width="120" height="60" as="geometry"/></mxCell><mxCell id="EYEAUQKpjQsUeQY74ElF-47" style="edgeStyle=orthogonalEdgeStyle;rounded=0;orthogonalLoop=1;jettySize=auto;html=1;exitX=0.25;exitY=1;exitDx=0;exitDy=0;entryX=0.5;entryY=0;entryDx=0;entryDy=0;" parent="1" source="EYEAUQKpjQsUeQY74ElF-31" target="EYEAUQKpjQsUeQY74ElF-44" edge="1"><mxGeometry relative="1" as="geometry"/></mxCell><mxCell id="EYEAUQKpjQsUeQY74ElF-48" style="edgeStyle=orthogonalEdgeStyle;rounded=0;orthogonalLoop=1;jettySize=auto;html=1;exitX=0.75;exitY=1;exitDx=0;exitDy=0;entryX=0.5;entryY=0;entryDx=0;entryDy=0;" parent="1" source="EYEAUQKpjQsUeQY74ElF-31" target="EYEAUQKpjQsUeQY74ElF-45" edge="1"><mxGeometry relative="1" as="geometry"/></mxCell><mxCell id="EYEAUQKpjQsUeQY74ElF-31" value="No" style="rounded=1;whiteSpace=wrap;html=1;" parent="1" vertex="1"><mxGeometry x="340" y="620" width="120" height="60" as="geometry"/></mxCell><mxCell id="EYEAUQKpjQsUeQY74ElF-34" value="¿La tiene alguien?" style="text;html=1;align=center;verticalAlign=middle;resizable=0;points=[];autosize=1;strokeColor=none;fillColor=none;" parent="1" vertex="1"><mxGeometry x="540" y="600" width="120" height="30" as="geometry"/></mxCell><mxCell id="EYEAUQKpjQsUeQY74ElF-61" style="edgeStyle=orthogonalEdgeStyle;rounded=0;orthogonalLoop=1;jettySize=auto;html=1;exitX=0.5;exitY=1;exitDx=0;exitDy=0;entryX=0.5;entryY=0;entryDx=0;entryDy=0;" parent="1" source="EYEAUQKpjQsUeQY74ElF-37" target="EYEAUQKpjQsUeQY74ElF-60" edge="1"><mxGeometry relative="1" as="geometry"/></mxCell><mxCell id="EYEAUQKpjQsUeQY74ElF-37" value="Inventario" style="rounded=1;whiteSpace=wrap;html=1;fillColor=#647687;strokeColor=#314354;fontColor=#ffffff;" parent="1" vertex="1"><mxGeometry x="780" y="720" width="120" height="60" as="geometry"/></mxCell><mxCell id="EYEAUQKpjQsUeQY74ElF-66" style="edgeStyle=orthogonalEdgeStyle;rounded=0;orthogonalLoop=1;jettySize=auto;html=1;exitX=0.5;exitY=1;exitDx=0;exitDy=0;" parent="1" source="EYEAUQKpjQsUeQY74ElF-38" target="EYEAUQKpjQsUeQY74ElF-65" edge="1"><mxGeometry relative="1" as="geometry"/></mxCell><mxCell id="EYEAUQKpjQsUeQY74ElF-38" value="EChest" style="rounded=1;whiteSpace=wrap;html=1;fillColor=#647687;strokeColor=#314354;fontColor=#ffffff;" parent="1" vertex="1"><mxGeometry x="1020" y="720" width="120" height="60" as="geometry"/></mxCell><mxCell id="EYEAUQKpjQsUeQY74ElF-43" value="¿Donde?" style="text;html=1;align=center;verticalAlign=middle;resizable=0;points=[];autosize=1;strokeColor=none;fillColor=none;" parent="1" vertex="1"><mxGeometry x="925" y="690" width="70" height="30" as="geometry"/></mxCell><mxCell id="EYEAUQKpjQsUeQY74ElF-50" style="edgeStyle=orthogonalEdgeStyle;rounded=0;orthogonalLoop=1;jettySize=auto;html=1;exitX=0.5;exitY=1;exitDx=0;exitDy=0;" parent="1" source="EYEAUQKpjQsUeQY74ElF-44" edge="1"><mxGeometry relative="1" as="geometry"><mxPoint x="280" y="820" as="targetPoint"/></mxGeometry></mxCell><mxCell id="EYEAUQKpjQsUeQY74ElF-51" value="No puede revivir" style="edgeLabel;html=1;align=center;verticalAlign=middle;resizable=0;points=[];" parent="EYEAUQKpjQsUeQY74ElF-50" vertex="1" connectable="0"><mxGeometry x="0.8507" y="1" relative="1" as="geometry"><mxPoint x="-1" y="13" as="offset"/></mxGeometry></mxCell><mxCell id="EYEAUQKpjQsUeQY74ElF-44" value="No" style="rounded=1;whiteSpace=wrap;html=1;fillColor=#647687;strokeColor=#314354;fontColor=#ffffff;" parent="1" vertex="1"><mxGeometry x="220" y="720" width="120" height="60" as="geometry"/></mxCell><mxCell id="EYEAUQKpjQsUeQY74ElF-54" style="edgeStyle=orthogonalEdgeStyle;rounded=0;orthogonalLoop=1;jettySize=auto;html=1;exitX=0.25;exitY=1;exitDx=0;exitDy=0;entryX=0.5;entryY=0;entryDx=0;entryDy=0;" parent="1" source="EYEAUQKpjQsUeQY74ElF-45" target="EYEAUQKpjQsUeQY74ElF-52" edge="1"><mxGeometry relative="1" as="geometry"/></mxCell><mxCell id="EYEAUQKpjQsUeQY74ElF-55" style="edgeStyle=orthogonalEdgeStyle;rounded=0;orthogonalLoop=1;jettySize=auto;html=1;exitX=0.75;exitY=1;exitDx=0;exitDy=0;entryX=0.5;entryY=0;entryDx=0;entryDy=0;" parent="1" source="EYEAUQKpjQsUeQY74ElF-45" target="EYEAUQKpjQsUeQY74ElF-53" edge="1"><mxGeometry relative="1" as="geometry"/></mxCell><mxCell id="EYEAUQKpjQsUeQY74ElF-45" value="Si" style="rounded=1;whiteSpace=wrap;html=1;" parent="1" vertex="1"><mxGeometry x="460" y="720" width="120" height="60" as="geometry"/></mxCell><mxCell id="EYEAUQKpjQsUeQY74ElF-49" value="¿Sigue existiendo?" style="text;html=1;align=center;verticalAlign=middle;resizable=0;points=[];autosize=1;strokeColor=none;fillColor=none;" parent="1" vertex="1"><mxGeometry x="330" y="698" width="130" height="30" as="geometry"/></mxCell><mxCell id="EYEAUQKpjQsUeQY74ElF-59" style="edgeStyle=orthogonalEdgeStyle;rounded=0;orthogonalLoop=1;jettySize=auto;html=1;exitX=0.5;exitY=1;exitDx=0;exitDy=0;entryX=0.5;entryY=0;entryDx=0;entryDy=0;" parent="1" source="EYEAUQKpjQsUeQY74ElF-52" target="EYEAUQKpjQsUeQY74ElF-27" edge="1"><mxGeometry relative="1" as="geometry"/></mxCell><mxCell id="EYEAUQKpjQsUeQY74ElF-52" value="Item dropeado" style="rounded=1;whiteSpace=wrap;html=1;fillColor=#647687;strokeColor=#314354;fontColor=#ffffff;" parent="1" vertex="1"><mxGeometry x="340" y="840" width="120" height="60" as="geometry"/></mxCell><mxCell id="EYEAUQKpjQsUeQY74ElF-69" style="edgeStyle=orthogonalEdgeStyle;rounded=0;orthogonalLoop=1;jettySize=auto;html=1;exitX=0.5;exitY=1;exitDx=0;exitDy=0;entryX=0.5;entryY=0;entryDx=0;entryDy=0;" parent="1" source="EYEAUQKpjQsUeQY74ElF-53" target="EYEAUQKpjQsUeQY74ElF-68" edge="1"><mxGeometry relative="1" as="geometry"/></mxCell><mxCell id="EYEAUQKpjQsUeQY74ElF-53" value="En un cofre" style="rounded=1;whiteSpace=wrap;html=1;fillColor=#647687;strokeColor=#314354;fontColor=#ffffff;" parent="1" vertex="1"><mxGeometry x="580" y="840" width="120" height="60" as="geometry"/></mxCell><mxCell id="EYEAUQKpjQsUeQY74ElF-64" style="edgeStyle=orthogonalEdgeStyle;rounded=0;orthogonalLoop=1;jettySize=auto;html=1;exitX=0.5;exitY=1;exitDx=0;exitDy=0;entryX=1;entryY=0.25;entryDx=0;entryDy=0;" parent="1" source="EYEAUQKpjQsUeQY74ElF-60" target="EYEAUQKpjQsUeQY74ElF-4" edge="1"><mxGeometry relative="1" as="geometry"><Array as="points"><mxPoint x="840" y="1020"/><mxPoint x="1280" y="1020"/><mxPoint x="1280" y="415"/></Array></mxGeometry></mxCell><mxCell id="EYEAUQKpjQsUeQY74ElF-60" value="El jugador escucha&lt;div&gt;muchos susurros y en su interfaz, la cabeza vibra hasta que la cabeza deje de estar en su inventario&lt;/div&gt;" style="rounded=1;whiteSpace=wrap;html=1;" parent="1" vertex="1"><mxGeometry x="780" y="840" width="120" height="100" as="geometry"/></mxCell><mxCell id="EYEAUQKpjQsUeQY74ElF-67" style="edgeStyle=orthogonalEdgeStyle;rounded=0;orthogonalLoop=1;jettySize=auto;html=1;exitX=1;exitY=0.5;exitDx=0;exitDy=0;entryX=0.985;entryY=0.762;entryDx=0;entryDy=0;entryPerimeter=0;" parent="1" source="EYEAUQKpjQsUeQY74ElF-65" target="EYEAUQKpjQsUeQY74ElF-4" edge="1"><mxGeometry relative="1" as="geometry"><mxPoint x="420" y="450" as="targetPoint"/><Array as="points"><mxPoint x="1200" y="890"/><mxPoint x="1200" y="446"/></Array></mxGeometry></mxCell><mxCell id="EYEAUQKpjQsUeQY74ElF-65" value="Solo el jugador que tiene en su echest la cabeza, ve todos los echests con efectos especiales y susuros, la cabeza se agita" style="rounded=1;whiteSpace=wrap;html=1;" parent="1" vertex="1"><mxGeometry x="1020" y="840" width="120" height="100" as="geometry"/></mxCell><mxCell id="EYEAUQKpjQsUeQY74ElF-70" style="edgeStyle=orthogonalEdgeStyle;rounded=0;orthogonalLoop=1;jettySize=auto;html=1;exitX=1;exitY=0.5;exitDx=0;exitDy=0;endArrow=none;endFill=0;" parent="1" source="EYEAUQKpjQsUeQY74ElF-68" edge="1"><mxGeometry relative="1" as="geometry"><mxPoint x="840" y="1020" as="targetPoint"/></mxGeometry></mxCell><mxCell id="EYEAUQKpjQsUeQY74ElF-68" value="El cofre tiene efectos especiales que ven todos, la cabeza se agita" style="rounded=1;whiteSpace=wrap;html=1;" parent="1" vertex="1"><mxGeometry x="580" y="985" width="120" height="70" as="geometry"/></mxCell><mxCell id="EYEAUQKpjQsUeQY74ElF-74" style="edgeStyle=orthogonalEdgeStyle;rounded=0;orthogonalLoop=1;jettySize=auto;html=1;exitX=0.5;exitY=1;exitDx=0;exitDy=0;entryX=0.5;entryY=0;entryDx=0;entryDy=0;" parent="1" source="EYEAUQKpjQsUeQY74ElF-71" target="EYEAUQKpjQsUeQY74ElF-73" edge="1"><mxGeometry relative="1" as="geometry"/></mxCell><mxCell id="EYEAUQKpjQsUeQY74ElF-71" value="Llega y hay efectos especiales" style="rounded=1;whiteSpace=wrap;html=1;" parent="1" vertex="1"><mxGeometry x="140" y="1584" width="120" height="60" as="geometry"/></mxCell><mxCell id="EYEAUQKpjQsUeQY74ElF-73" value="La persona revive y el totem se destuye" style="rounded=1;whiteSpace=wrap;html=1;" parent="1" vertex="1"><mxGeometry x="140" y="1694" width="120" height="60" as="geometry"/></mxCell><mxCell id="EYEAUQKpjQsUeQY74ElF-75" value="La persona a revivir puede seguir spameando para intensificar los efectos" style="text;html=1;align=center;verticalAlign=middle;resizable=0;points=[];autosize=1;strokeColor=none;fillColor=none;" parent="1" vertex="1"><mxGeometry x="860" y="378" width="420" height="30" as="geometry"/></mxCell><mxCell id="EYEAUQKpjQsUeQY74ElF-76" value="MIXIN: Las entidades no pueden pillar cabezas" style="text;html=1;align=center;verticalAlign=middle;whiteSpace=wrap;rounded=0;" parent="1" vertex="1"><mxGeometry x="750" y="160" width="160" height="30" as="geometry"/></mxCell><mxCell id="EYEAUQKpjQsUeQY74ElF-77" value="MIXIN: No dejar que las cabezas se metan en subinventarios como shulkers, mochilas, etc" style="text;html=1;align=center;verticalAlign=middle;whiteSpace=wrap;rounded=0;" parent="1" vertex="1"><mxGeometry x="728.5" y="210" width="203" height="40" as="geometry"/></mxCell><mxCell id="EYEAUQKpjQsUeQY74ElF-90" style="edgeStyle=orthogonalEdgeStyle;rounded=0;orthogonalLoop=1;jettySize=auto;html=1;exitX=0.5;exitY=1;exitDx=0;exitDy=0;entryX=0.5;entryY=0;entryDx=0;entryDy=0;" parent="1" source="EYEAUQKpjQsUeQY74ElF-78" target="EYEAUQKpjQsUeQY74ElF-71" edge="1"><mxGeometry relative="1" as="geometry"/></mxCell><mxCell id="EYEAUQKpjQsUeQY74ElF-78" value="Si" style="rounded=1;whiteSpace=wrap;html=1;" parent="1" vertex="1"><mxGeometry x="140" y="1169" width="120" height="60" as="geometry"/></mxCell><mxCell id="EYEAUQKpjQsUeQY74ElF-84" style="edgeStyle=orthogonalEdgeStyle;rounded=0;orthogonalLoop=1;jettySize=auto;html=1;exitX=0.5;exitY=1;exitDx=0;exitDy=0;entryX=0.5;entryY=0;entryDx=0;entryDy=0;" parent="1" source="EYEAUQKpjQsUeQY74ElF-79" target="EYEAUQKpjQsUeQY74ElF-83" edge="1"><mxGeometry relative="1" as="geometry"/></mxCell><mxCell id="EYEAUQKpjQsUeQY74ElF-79" value="No" style="rounded=1;whiteSpace=wrap;html=1;" parent="1" vertex="1"><mxGeometry x="-110" y="1160" width="120" height="60" as="geometry"/></mxCell><mxCell id="EYEAUQKpjQsUeQY74ElF-82" value="¿Cabeza en el overworld?" style="text;html=1;align=center;verticalAlign=middle;resizable=0;points=[];autosize=1;strokeColor=none;fillColor=none;" parent="1" vertex="1"><mxGeometry x="-10" y="1130" width="160" height="30" as="geometry"/></mxCell><mxCell id="EYEAUQKpjQsUeQY74ElF-87" style="edgeStyle=orthogonalEdgeStyle;rounded=0;orthogonalLoop=1;jettySize=auto;html=1;exitX=0.25;exitY=1;exitDx=0;exitDy=0;entryX=0.5;entryY=0;entryDx=0;entryDy=0;" parent="1" source="EYEAUQKpjQsUeQY74ElF-83" target="EYEAUQKpjQsUeQY74ElF-85" edge="1"><mxGeometry relative="1" as="geometry"/></mxCell><mxCell id="EYEAUQKpjQsUeQY74ElF-88" style="edgeStyle=orthogonalEdgeStyle;rounded=0;orthogonalLoop=1;jettySize=auto;html=1;exitX=0.75;exitY=1;exitDx=0;exitDy=0;entryX=0.5;entryY=0;entryDx=0;entryDy=0;" parent="1" source="EYEAUQKpjQsUeQY74ElF-83" target="EYEAUQKpjQsUeQY74ElF-86" edge="1"><mxGeometry relative="1" as="geometry"/></mxCell><mxCell id="EYEAUQKpjQsUeQY74ElF-83" value="Localiza el portal mas cercano y sale por el" style="rounded=1;whiteSpace=wrap;html=1;" parent="1" vertex="1"><mxGeometry x="-110" y="1280" width="120" height="60" as="geometry"/></mxCell><mxCell id="EYEAUQKpjQsUeQY74ElF-93" style="edgeStyle=orthogonalEdgeStyle;rounded=0;orthogonalLoop=1;jettySize=auto;html=1;exitX=0.5;exitY=1;exitDx=0;exitDy=0;entryX=0.5;entryY=0;entryDx=0;entryDy=0;" parent="1" source="EYEAUQKpjQsUeQY74ElF-85" target="EYEAUQKpjQsUeQY74ElF-92" edge="1"><mxGeometry relative="1" as="geometry"/></mxCell><mxCell id="EYEAUQKpjQsUeQY74ElF-85" value="No" style="rounded=1;whiteSpace=wrap;html=1;" parent="1" vertex="1"><mxGeometry x="-230" y="1380" width="120" height="60" as="geometry"/></mxCell><mxCell id="EYEAUQKpjQsUeQY74ElF-91" style="edgeStyle=orthogonalEdgeStyle;rounded=0;orthogonalLoop=1;jettySize=auto;html=1;exitX=0.5;exitY=1;exitDx=0;exitDy=0;entryX=0;entryY=0.25;entryDx=0;entryDy=0;" parent="1" source="EYEAUQKpjQsUeQY74ElF-86" target="EYEAUQKpjQsUeQY74ElF-71" edge="1"><mxGeometry relative="1" as="geometry"/></mxCell><mxCell id="EYEAUQKpjQsUeQY74ElF-86" value="Si" style="rounded=1;whiteSpace=wrap;html=1;" parent="1" vertex="1"><mxGeometry x="10" y="1380" width="120" height="60" as="geometry"/></mxCell><mxCell id="EYEAUQKpjQsUeQY74ElF-89" value="¿Hay portal?" style="text;html=1;align=center;verticalAlign=middle;resizable=0;points=[];autosize=1;strokeColor=none;fillColor=none;" parent="1" vertex="1"><mxGeometry x="-100" y="1360" width="90" height="30" as="geometry"/></mxCell><mxCell id="EYEAUQKpjQsUeQY74ElF-94" style="edgeStyle=orthogonalEdgeStyle;rounded=0;orthogonalLoop=1;jettySize=auto;html=1;exitX=0.5;exitY=1;exitDx=0;exitDy=0;entryX=0;entryY=0.75;entryDx=0;entryDy=0;" parent="1" source="EYEAUQKpjQsUeQY74ElF-92" target="EYEAUQKpjQsUeQY74ElF-71" edge="1"><mxGeometry relative="1" as="geometry"/></mxCell><mxCell id="EYEAUQKpjQsUeQY74ElF-92" value="?" style="rounded=1;whiteSpace=wrap;html=1;" parent="1" vertex="1"><mxGeometry x="-230" y="1480" width="120" height="60" as="geometry"/></mxCell></root></mxGraphModel></diagram></mxfile>